<svg width="48" height="48" viewBox="0 0 48 48" fill="none" xmlns="http://www.w3.org/2000/svg">
<path d="M15.6781 38.3818C16.3416 37.3891 16.6959 36.222 16.6961 35.028C16.6961 33.427 16.0602 31.8915 14.9283 30.7592C13.7964 29.6269 12.2611 28.9905 10.6601 28.99C9.46607 28.9898 8.29882 29.3437 7.30593 30.0069C6.31304 30.67 5.5391 31.6128 5.082 32.7158C4.62489 33.8188 4.50513 35.0327 4.73788 36.2038C4.97062 37.3749 5.54541 38.4507 6.38956 39.2951C7.23371 40.1395 8.30931 40.7147 9.48033 40.9478C10.6514 41.1809 11.8652 41.0616 12.9684 40.6048C14.0716 40.1481 15.0146 39.3745 15.6781 38.3818Z" fill="#A169F7"/>
<path d="M35.0296 48.0001C42.1926 48.0001 47.9996 42.1921 47.9996 35.0281C47.9996 27.8641 42.1926 22.0581 35.0276 22.0581C27.8646 22.0581 22.0576 27.8641 22.0576 35.0281C22.0576 42.1921 27.8646 48.0001 35.0296 48.0001Z" fill="#97CF26"/>
<path d="M42.7787 13.8949C43.1906 12.8669 43.3939 11.7673 43.3767 10.66C43.3353 8.47324 42.4365 6.39005 40.8754 4.85823C39.3142 3.32641 37.2144 2.46826 35.0272 2.46826C32.8401 2.46826 30.7403 3.32641 29.1791 4.85823C27.618 6.39005 26.7202 8.47324 26.6787 10.66C26.6616 11.7673 26.8649 12.8669 27.2768 13.8949C27.6887 14.9228 28.3009 15.8586 29.0779 16.6477C29.8549 17.4368 30.781 18.0635 31.8025 18.4912C32.824 18.9189 33.9203 19.1392 35.0277 19.1392C36.1351 19.1392 37.2315 18.9189 38.253 18.4912C39.2744 18.0635 40.2006 17.4368 40.9776 16.6477C41.7546 15.8586 42.3668 14.9228 42.7787 13.8949Z" fill="#FF6163"/>
<path d="M10.66 21.32C16.548 21.32 21.32 16.548 21.32 10.66C21.32 4.773 16.548 0 10.66 0C4.773 0 0 4.773 0 10.66C0 16.55 4.773 21.32 10.66 21.32Z" fill="#00AAFF"/>
</svg>
