<svg width="160" height="90" viewBox="0 0 160 90" fill="none" xmlns="http://www.w3.org/2000/svg">
<g clip-path="url(#clip0)">
<rect width="160" height="90" fill="white"/>
<path d="M79.9996 -243V45L-89.2822 -187.997C-40.0782 -223.746 19.1796 -243 79.9996 -243Z" fill="#E0F6FF"/>
<path d="M-193.904 133.997L79.9999 45.0002L-193.904 -43.9968C-212.699 13.8462 -212.699 76.1542 -193.904 133.997Z" fill="#383C46"/>
<path d="M-193.904 -43.9969L79.9996 45.0001L-89.2822 -187.997C-138.486 -152.248 -175.11 -101.84 -193.904 -43.9969Z" fill="#00CCA7"/>
<path d="M249.282 -187.997C200.078 -223.746 140.82 -243 80 -243V45L249.282 -187.997Z" fill="#FF262F"/>
<path d="M80 45.0001L249.282 -187.997C298.486 -152.248 335.11 -101.84 353.904 -43.9969L80 45.0001Z" fill="#FFCC00"/>
<path d="M80 45.0002L353.904 -43.9968C372.698 13.8462 372.698 76.1542 353.904 133.997L80 45.0002Z" fill="#FF71C5"/>
<path d="M80 45.0002L353.904 133.997C335.11 191.84 298.486 242.248 249.282 277.997L80 45.0002Z" fill="#0077FF"/>
<path d="M80 45.0002L249.282 277.997C200.078 313.746 140.82 333 80 333V45.0002Z" fill="#CCCCCC"/>
<path d="M79.9996 45.0002V333C19.1796 333 -40.0782 313.746 -89.2822 277.997L79.9996 45.0002Z" fill="#8618FF"/>
<path d="M-89.2822 277.997L79.9996 45L-193.904 133.997C-175.11 191.84 -138.486 242.248 -89.2822 277.997Z" fill="#FF8A00"/>
</g>
<defs>
<clipPath id="clip0">
<rect width="160" height="90" fill="white"/>
</clipPath>
</defs>
</svg>
