<svg width="166" height="30" viewBox="0 0 166 30" fill="none" xmlns="http://www.w3.org/2000/svg">
<path d="M44.8266 20.6588C45.4439 20.6968 46.0625 20.6118 46.6466 20.4088C47.0126 20.2168 47.2236 19.8188 47.1766 19.4088C47.1621 19.1955 47.0903 18.9901 46.9689 18.8141C46.8475 18.6381 46.6809 18.4981 46.4866 18.4088C45.8166 18.0138 45.1146 17.6788 44.3866 17.4088C43.7066 17.1588 43.0386 16.8758 42.3866 16.5588C41.8274 16.2917 41.3144 15.9373 40.8666 15.5088C40.4342 15.098 40.0934 14.6005 39.8666 14.0488C39.6249 13.4101 39.5062 12.7316 39.5166 12.0488C39.4898 11.3432 39.633 10.6415 39.9341 10.0028C40.2351 9.36411 40.6853 8.80713 41.2466 8.37879C42.6484 7.41116 44.3376 6.94918 46.0366 7.06879C47.0066 7.06679 47.9736 7.15679 48.9266 7.33879C49.6746 7.46879 50.4106 7.66379 51.1266 7.91879L50.3066 11.5588C49.726 11.3607 49.1351 11.1938 48.5366 11.0588C47.8305 10.9052 47.1093 10.8314 46.3866 10.8388C44.9196 10.8388 44.1866 11.2458 44.1866 12.0588C44.1826 12.2288 44.2126 12.3988 44.2766 12.5588C44.3636 12.7308 44.4946 12.8758 44.6566 12.9788C44.9006 13.1468 45.1566 13.2938 45.4266 13.4188C45.7536 13.5788 46.1666 13.7518 46.6666 13.9388C47.5396 14.2508 48.3866 14.6248 49.2066 15.0588C49.7986 15.3688 50.3366 15.7738 50.7966 16.2588C51.1736 16.6688 51.4546 17.1568 51.6166 17.6888C51.7846 18.2808 51.8666 18.8938 51.8566 19.5088C51.898 20.2301 51.7522 20.9499 51.4333 21.5982C51.1144 22.2465 50.6333 22.8013 50.0366 23.2088C48.4692 24.1317 46.6624 24.5668 44.8466 24.4588C43.6166 24.4838 42.3866 24.3558 41.1866 24.0788C40.5059 23.9166 39.8375 23.706 39.1866 23.4488L39.9666 19.6488C40.7616 19.9638 41.5806 20.2108 42.4166 20.3888C43.2086 20.5608 44.0166 20.6508 44.8266 20.6588V20.6588ZM65.2266 11.6488C64.8066 11.5418 64.3166 11.4318 63.7566 11.3188C63.1571 11.2018 62.5475 11.1449 61.9366 11.1488C61.5866 11.1538 61.2346 11.1808 60.8866 11.2288C60.5726 11.2618 60.2616 11.3188 59.9566 11.3988V23.9688H55.2766V8.37879C56.2606 8.04679 57.2616 7.76879 58.2766 7.54879C59.5116 7.27879 60.7726 7.14879 62.0366 7.15879H62.9466C63.2996 7.15879 63.6636 7.21579 64.0366 7.32879C64.3896 7.38179 64.7466 7.44579 65.1066 7.51879C65.4166 7.57879 65.7226 7.67079 66.0166 7.78879L65.2266 11.6488V11.6488ZM74.1366 7.06879C75.3046 7.03879 76.4696 7.19679 77.5866 7.53879C78.4225 7.80165 79.1812 8.26514 79.7966 8.88879C80.3606 9.49379 80.7666 10.2288 80.9766 11.0288C81.2166 11.9388 81.3346 12.8788 81.3266 13.8188V23.5488C80.6596 23.6958 79.7296 23.8688 78.5366 24.0688C77.1038 24.2856 75.6557 24.386 74.2066 24.3688C73.2328 24.3787 72.2606 24.2849 71.3066 24.0888C70.4963 23.9308 69.7249 23.6148 69.0366 23.1588C68.416 22.7365 67.919 22.1567 67.5966 21.4788C67.2405 20.6807 67.0696 19.8123 67.0966 18.9388C67.0696 18.0848 67.2696 17.2388 67.6766 16.4888C68.0499 15.8331 68.5832 15.2827 69.2266 14.8888C69.9143 14.4546 70.6723 14.1433 71.4666 13.9688C72.3134 13.8072 73.1747 13.7334 74.0366 13.7488C74.5766 13.7458 75.1186 13.7728 75.6566 13.8288C76.0446 13.8648 76.4296 13.9318 76.8066 14.0288V13.5888C76.8236 13.2366 76.7685 12.8847 76.6447 12.5545C76.5209 12.2244 76.331 11.923 76.0866 11.6688C75.3789 11.1289 74.4922 10.8786 73.6066 10.9688C72.8206 10.9688 72.0346 11.0248 71.2566 11.1388C70.5746 11.2338 69.9046 11.3988 69.2566 11.6288L68.6566 7.85879C68.9296 7.77179 69.2636 7.68179 69.6566 7.58879C70.0496 7.49579 70.5096 7.40879 71.0366 7.32879C71.5166 7.25579 72.0236 7.19179 72.5566 7.13879C73.0896 7.08579 73.6166 7.06179 74.1366 7.06879V7.06879ZM74.5166 20.7588H75.8366C76.1716 20.7488 76.5066 20.7188 76.8366 20.6688V17.0788C76.6496 17.0058 76.3836 16.9688 76.0366 16.9688C75.7046 16.9308 75.3708 16.9108 75.0366 16.9088C74.6216 16.9088 74.2066 16.9348 73.7966 16.9888C73.4493 17.0342 73.1116 17.1355 72.7966 17.2888C72.5173 17.4237 72.279 17.6309 72.1066 17.8888C71.9316 18.1688 71.8446 18.4988 71.8566 18.8288C71.8258 19.126 71.8787 19.4259 72.0095 19.6945C72.1403 19.9631 72.3437 20.1898 72.5966 20.3488C73.1945 20.6366 73.8536 20.774 74.5166 20.7488V20.7588V20.7588ZM89.6666 23.9688C88.5796 21.9088 87.4936 19.4758 86.4066 16.6688C85.2482 13.6526 84.2041 10.5938 83.2766 7.49879H88.2766C88.4836 8.31179 88.7296 9.19579 89.0166 10.1488C89.3036 11.1018 89.5966 12.0658 89.8966 13.0388C90.2036 14.0118 90.5066 14.9588 90.8066 15.8788C91.1066 16.7988 91.4066 17.6358 91.7066 18.3888C92.3474 16.6183 92.9509 14.8346 93.5166 13.0388C93.8236 12.0658 94.1166 11.1018 94.3966 10.1488C94.6766 9.19579 94.9236 8.31179 95.1366 7.49879H99.9366C98.9496 10.8318 97.9066 13.8888 96.8066 16.6688C95.7066 19.4488 94.6196 21.8818 93.5466 23.9688H89.6666V23.9688ZM102.417 8.06879C103.429 7.79305 104.458 7.57932 105.497 7.42879C106.82 7.22291 108.157 7.12259 109.497 7.12879C110.687 7.09462 111.874 7.28109 112.997 7.67879C113.857 7.99479 114.617 8.52879 115.207 9.22879C115.765 9.92879 116.162 10.7458 116.367 11.6188C116.609 12.6288 116.727 13.6618 116.717 14.6988V23.9688H112.037V15.2588C112.12 14.158 111.913 13.0548 111.437 12.0588C111.179 11.7209 110.838 11.4564 110.447 11.2914C110.056 11.1265 109.628 11.067 109.207 11.1188H108.137L107.137 11.2288V23.9688H102.457L102.417 8.06879V8.06879ZM126.037 2.72879C126.052 3.10244 125.986 3.47492 125.842 3.82031C125.699 4.16571 125.482 4.47573 125.207 4.72879C124.662 5.19892 123.966 5.45758 123.247 5.45758C122.527 5.45758 121.831 5.19892 121.287 4.72879C121.011 4.47573 120.794 4.16571 120.651 3.82031C120.508 3.47492 120.441 3.10244 120.457 2.72879C120.441 2.35514 120.508 1.98266 120.651 1.63726C120.794 1.29187 121.011 0.981852 121.287 0.728789C121.831 0.258654 122.527 0 123.247 0C123.966 0 124.662 0.258654 125.207 0.728789C125.765 1.24079 126.067 1.97279 126.037 2.72879ZM125.587 23.9688H120.907V7.49879H125.587V23.9688V23.9688ZM134.557 21.5388C134.583 21.9414 134.517 22.3447 134.362 22.7176C134.208 23.0904 133.97 23.4227 133.667 23.6888C133.103 24.152 132.396 24.4052 131.667 24.4052C130.937 24.4052 130.23 24.152 129.667 23.6888C129.363 23.4227 129.125 23.0904 128.971 22.7176C128.817 22.3447 128.75 21.9414 128.777 21.5388C128.75 21.1362 128.817 20.7328 128.971 20.36C129.125 19.9872 129.363 19.6549 129.667 19.3888C130.23 18.9256 130.937 18.6724 131.667 18.6724C132.396 18.6724 133.103 18.9256 133.667 19.3888C133.97 19.6549 134.208 19.9872 134.362 20.36C134.517 20.7328 134.583 21.1362 134.557 21.5388V21.5388ZM147.647 11.6488C147.227 11.5418 146.737 11.4318 146.177 11.3188C145.577 11.2018 144.967 11.1449 144.357 11.1488C144.007 11.1538 143.655 11.1808 143.307 11.2288C142.993 11.2618 142.682 11.3188 142.377 11.3988V23.9688H137.697V8.37879C138.681 8.04679 139.682 7.76879 140.697 7.54879C141.947 7.27679 143.227 7.14579 144.507 7.15879H145.417C145.77 7.15879 146.127 7.20179 146.487 7.28879C146.84 7.34179 147.197 7.40579 147.557 7.47879C147.867 7.53879 148.173 7.63079 148.467 7.74879L147.647 11.6488V11.6488ZM165.037 23.4488C164.024 23.7245 162.995 23.9383 161.957 24.0888C160.634 24.2948 159.297 24.3948 157.957 24.3888C156.765 24.4259 155.577 24.2358 154.457 23.8288C153.595 23.4994 152.833 22.9514 152.247 22.2388C151.686 21.5238 151.29 20.6941 151.087 19.8088C150.846 18.7898 150.729 17.7457 150.737 16.6988V7.49879H155.417V16.1288C155.338 17.2519 155.545 18.3766 156.017 19.3988C156.517 20.1188 157.377 20.5038 158.247 20.3988H159.317C159.697 20.3988 160.03 20.3618 160.317 20.2888V7.49879H165.037V23.4488Z" fill="#3B3E44"/>
<path d="M9.39664 18.5788C8.74625 17.4897 8.47774 16.2147 8.63363 14.9558C8.78953 13.6969 9.36092 12.526 10.2573 11.6284C11.1538 10.7308 12.324 10.1579 13.5827 10.0004C14.8414 9.84293 16.1167 10.1098 17.2066 10.7588L23.3466 4.61881C17.6666 -0.0481868 9.37264 0.358813 4.17664 5.55881C-1.01735 10.7588 -1.41636 19.0538 3.25664 24.7288L9.39664 18.5788Z" fill="#03A9F4"/>
<path d="M25.3666 6.6488L19.2266 12.7888C19.8628 13.8784 20.1201 15.148 19.9584 16.3993C19.7967 17.6506 19.2252 18.8131 18.3331 19.7052C17.4409 20.5974 16.2784 21.1689 15.0271 21.3306C13.7758 21.4922 12.5062 21.2349 11.4166 20.5988L5.27664 26.7488C10.9566 31.3938 19.2306 30.9788 24.4166 25.7908C26.9206 23.286 28.4044 19.9402 28.5799 16.4028C28.7555 12.8655 27.6103 9.38918 25.3666 6.6488V6.6488Z" fill="#0DD149"/>
</svg>
