<svg width="441" height="123" viewBox="0 0 441 123" fill="none" xmlns="http://www.w3.org/2000/svg">
<path d="M38.9173 122.684V83.4159L67.7948 0.228027H55.5378L32.9849 66.6706L13.4227 11.7343H0.0380859L26.6113 82.9752V122.684H38.9173Z" fill="white"/>
<path d="M91.4395 46L133.439 89M133.439 46L91.4395 89" stroke="white" stroke-width="1.69392"/>
<g clip-path="url(#clip0)">
<path fill-rule="evenodd" clip-rule="evenodd" d="M390.796 55.4994C391.816 57.2592 392.15 59.2614 392.26 61.5123L392.405 64.5124V85.4912L392.553 88.4945C392.849 93.3992 396.468 97.0258 401.413 97.3343L404.402 97.4822V64.5124L404.55 61.5123C404.672 59.2866 405.003 57.2466 406.039 55.4742C407.095 53.6563 408.611 52.1481 410.434 51.1009C412.258 50.0537 414.325 49.5044 416.428 49.5083C418.531 49.5121 420.596 50.0689 422.416 51.1227C424.235 52.1765 425.746 53.6903 426.795 55.512C427.815 57.2718 428.133 59.3118 428.256 61.5123L428.404 64.5029V85.4912L428.552 88.4945C428.861 93.4244 432.451 97.051 437.412 97.3343L440.401 97.4822V61.5123C440.401 55.1518 437.874 49.0517 433.375 44.5533C428.876 40.0548 422.774 37.5264 416.411 37.5239C413.005 37.5203 409.637 38.2432 406.533 39.6444C403.429 41.0456 400.66 43.0927 398.411 45.6491C396.161 43.0937 393.392 41.0471 390.288 39.6455C387.184 38.2439 383.817 37.5196 380.411 37.5207C375.429 37.5207 370.805 39.0318 366.976 41.6416C364.639 39.035 359.41 37.5207 356.409 37.5207V97.4822L359.41 97.3343C364.431 97.0037 368.059 93.4747 368.254 88.4945L368.415 85.4912V64.5124L368.563 61.5123C368.689 59.2488 369.004 57.2592 370.027 55.4868C371.084 53.6701 372.599 52.1621 374.421 51.1137C376.244 50.0652 378.309 49.5129 380.411 49.5118C382.516 49.5122 384.583 50.0657 386.405 51.1166C388.228 52.1675 389.742 53.679 390.796 55.4994ZM185.436 97.3374L188.438 97.4822H233.429L233.281 94.4916C232.874 89.5617 229.382 85.9603 224.434 85.6392L221.432 85.4912H194.441L230.427 49.5086L230.279 46.5211C230.046 41.5408 226.405 37.9426 221.432 37.6687L218.431 37.5333L173.439 37.5207L173.587 40.5209C173.981 45.4035 177.524 49.0805 182.431 49.3638L185.436 49.5118H212.428L176.441 85.4943L176.589 88.4945C176.885 93.437 180.453 97.0163 185.436 97.3343V97.3374ZM344.633 46.2976C347.418 49.0815 349.628 52.3867 351.136 56.0243C352.644 59.662 353.42 63.5609 353.42 67.4983C353.42 71.4358 352.644 75.3347 351.136 78.9724C349.628 82.61 347.418 85.9152 344.633 88.6991C339.004 94.3202 331.374 97.4777 323.417 97.4777C315.461 97.4777 307.83 94.3202 302.202 88.6991C290.489 76.9914 290.489 58.0053 302.202 46.2976C304.985 43.5146 308.29 41.3068 311.927 39.8004C315.564 38.2939 319.462 37.5182 323.398 37.5176C327.342 37.5148 331.247 38.2892 334.89 39.7963C338.534 41.3034 341.844 43.5137 344.633 46.3007V46.2976ZM260.445 37.5176C264.383 37.5186 268.281 38.2948 271.918 39.8018C275.555 41.3088 278.859 43.5172 281.642 46.3007C293.358 58.0053 293.358 76.9945 281.642 88.6991C276.014 94.3202 268.383 97.4777 260.427 97.4777C252.47 97.4777 244.84 94.3202 239.211 88.6991C227.498 76.9914 227.498 58.0053 239.211 46.2976C241.995 43.5146 245.299 41.3068 248.936 39.8004C252.573 38.2939 256.471 37.5182 260.408 37.5176H260.445ZM341.414 67.5094C341.414 62.7385 339.518 58.1628 336.145 54.788C332.768 51.4157 328.19 49.5214 323.417 49.5214C318.644 49.5214 314.066 51.4157 310.69 54.788C307.316 58.1628 305.421 62.7385 305.421 67.5094C305.421 72.2803 307.316 76.8559 310.69 80.2308C314.066 83.603 318.644 85.4973 323.417 85.4973C328.19 85.4973 332.768 83.603 336.145 80.2308C339.518 76.8559 341.414 72.2803 341.414 67.5094ZM273.154 54.7817C276.529 58.1566 278.424 62.733 278.424 67.5046C278.424 72.2763 276.529 76.8527 273.154 80.2276C269.777 83.5999 265.2 85.4942 260.426 85.4942C255.653 85.4942 251.076 83.5999 247.699 80.2276C244.325 76.8528 242.43 72.2771 242.43 67.5062C242.43 62.7353 244.325 58.1596 247.699 54.7848C251.076 51.4125 255.653 49.5183 260.426 49.5183C265.2 49.5183 269.777 51.4125 273.154 54.7848V54.7817Z" fill="white"/>
</g>
<defs>
<clipPath id="clip0">
<rect width="266.961" height="59.9647" fill="white" transform="translate(173.439 37.5176)"/>
</clipPath>
</defs>
</svg>
